<svg width="8" height="5" viewBox="0 0 8 5" fill="none" xmlns="http://www.w3.org/2000/svg">
<path d="M4.701 0.300097L7.301 2.9001C7.61767 3.21676 7.6885 3.57926 7.5135 3.9876C7.3385 4.39593 7.026 4.6001 6.576 4.6001L1.426 4.6001C0.976001 4.6001 0.663502 4.39593 0.488502 3.9876C0.313501 3.57926 0.384335 3.21676 0.701002 2.9001L3.301 0.300097C3.401 0.200098 3.50933 0.125098 3.626 0.0750976C3.74267 0.0250974 3.86767 9.77516e-05 4.001 9.77516e-05C4.13433 9.77516e-05 4.25933 0.0250974 4.376 0.0750976C4.49267 0.125098 4.601 0.200098 4.701 0.300097Z" fill="#2A3647"/>
</svg>
